# xmcd
#
# Track frame offsets:
#	150
#	17082
#	32499
#	47172
#	67360
#	85356
#	100858
#	115982
#	133546
#	150096
#
# Disc length: 2250 seconds
#
# Revision: 28
# Processed by: cddbd v1.5.2PL0 Copyright (c) Steve Scherf et al.
# Submitted via: Jack! The Knife 20 Magnifico
#
DISCID=7c08c80a
DTITLE=AC-DC - Flick Of The Switch
DYEAR=1983
DGENRE=Hard Rock
TTITLE0=Rising Power
TTITLE1=This House Is On Fire
TTITLE2=Flick Of The Switch
TTITLE3=Nervous Shakedown
TTITLE4=Landslide
TTITLE5=Guns For Hire
TTITLE6=Deep In The Hole
TTITLE7=Bedlam In Belgium
TTITLE8=Badlands
TTITLE9=Brain Shake
EXTD=AC/DC
EXTT0=Young, Johnson, Young
EXTT1=Young, Johnson, Young
EXTT2=Young, Johnson, Young
EXTT3=Young, Johnson, Young
EXTT4=Young, Johnson, Young
EXTT5=Young, Johnson, Young
EXTT6=Young, Johnson, Young
EXTT7=Young, Johnson, Young
EXTT8=Young, Johnson, Young
EXTT9=Young, Johnson, Young
PLAYORDER=
